<?xml version="1.0" standalone="no"?>
<!DOCTYPE svg PUBLIC "-//W3C//DTD SVG 20010904//EN"
 "http://www.w3.org/TR/2001/REC-SVG-20010904/DTD/svg10.dtd">
<svg version="1.0" xmlns="http://www.w3.org/2000/svg"
 width="160.000000pt" height="160.000000pt" viewBox="0 0 160.000000 160.000000"
 preserveAspectRatio="xMidYMid meet">

<g transform="translate(0.000000,160.000000) scale(0.100000,-0.100000)"
fill="#000000" stroke="none">
<path d="M685 1380 c-218 -40 -351 -179 -331 -348 13 -111 82 -214 320 -472
110 -120 145 -178 128 -215 -34 -75 -257 -27 -370 79 -50 47 -76 57 -85 32
-19 -48 127 -151 259 -182 81 -19 251 -14 325 9 251 80 335 274 204 474 -40
60 -124 159 -249 293 -148 160 -181 224 -136 265 46 41 193 17 281 -47 36 -26
40 -32 26 -40 -15 -8 -17 -31 -17 -173 l0 -165 50 0 49 0 3 63 3 62 58 3 57 3
0 -66 0 -65 50 0 50 0 0 170 0 170 -50 0 -50 0 0 -65 0 -65 -60 0 -60 0 0 65
c0 37 -4 65 -10 65 -5 0 -10 9 -10 20 0 28 -82 84 -160 110 -73 24 -201 33
-275 20z"/>
<path d="M207 813 c-4 -3 -7 -80 -7 -170 l0 -163 50 0 50 0 0 60 c0 33 4 60 8
60 16 0 42 -36 55 -76 14 -39 14 -39 70 -42 32 -2 57 -1 57 2 0 17 -53 121
-67 131 -16 12 -14 15 15 40 27 22 32 34 32 69 0 54 -19 73 -90 86 -60 11
-163 13 -173 3z m147 -79 c29 -29 12 -64 -31 -64 -19 0 -23 5 -23 33 0 50 23
63 54 31z"/>
</g>
</svg>
